<svg xmlns="http://www.w3.org/2000/svg" viewBox="0 0 500 150"><defs><style>.cls-1{fill:none;}.cls-1,.cls-2{stroke:#000;stroke-miterlimit:10;}</style></defs><title>Personal Logo</title><g id="logo2"><line class="cls-1" x1="435.04" y1="108.65" x2="406.65" y2="74.83"/><path class="cls-1" d="M391.54,109V39.47h17.21c8,0,20.5,2.58,20.5,16.86,0,19-20.5,18.55-20.5,18.55l-17.21-.16"/><polyline class="cls-1" points="369.92 108.48 329.51 108.47 329.53 73.29 329.54 39.5 369.85 39.5"/><path class="cls-1" d="M329.71,73.42l34.13-.07Z"/><polyline class="cls-1" points="227.63 39 227.63 108.47 263.9 108.48"/><polyline class="cls-1" points="278.63 39 278.63 108.47 314.9 108.48"/><line class="cls-2" x1="200.48" y1="38.98" x2="200.48" y2="108.98"/></g><g id="logo1"><polygon points="148.96 39 142.45 39 126.02 78.39 125.4 79.88 113.25 109 119.88 109 128.69 87.8 129.32 86.28 148.96 39"/><polygon points="109.58 39 103.08 39 73.88 109 80.5 109 109.58 39"/><circle cx="64.39" cy="99.85" r="6.22"/><circle cx="64.39" cy="66.47" r="6.22"/><polygon points="94.13 84.02 93.72 85.02 120.01 85 120.42 84 94.13 84.02"/><polygon points="137.52 109 130.31 91.72 130.94 90.19 138.78 109 137.52 109"/><polygon points="176.92 109 149.98 44.42 150.61 42.9 178.19 109 176.92 109"/><polygon points="123.78 75.99 110.6 44.42 111.23 42.9 124.41 74.46 123.78 75.99"/></g></svg>